<svg width="150" height="150" viewBox="0 0 150 150" fill="none" xmlns="http://www.w3.org/2000/svg">
<g filter="url(#filter0_dd_1_2)">
<rect x="11" y="7" width="128" height="128" rx="15" fill="url(#paint0_linear_1_2)"/>
<rect x="25.5" y="29.5" width="99" height="99" stroke="white"/>
<rect x="35" y="45" width="22" height="17" fill="white"/>
<rect x="64" y="45" width="22" height="17" fill="white"/>
<rect x="93" y="45" width="22" height="17" fill="white"/>
<rect x="93" y="71" width="22" height="17" fill="white"/>
<rect x="93" y="97" width="22" height="17" fill="white"/>
<rect x="35" y="71" width="22" height="17" fill="white"/>
<circle cx="75" cy="27" r="15" fill="white"/>
<path d="M65.2102 27.9318V27.25L70.6989 24.4545V25.5455L66.4886 27.5739L66.5227 27.5057V27.6761L66.4886 27.608L70.6989 29.6364V30.7273L65.2102 27.9318ZM75.9158 21.8636L73.1033 32.3125H72.1829L74.9954 21.8636H75.9158ZM82.8864 27.9318L77.3977 30.7273V29.6364L81.608 27.608L81.5739 27.6761V27.5057L81.608 27.5739L77.3977 25.5455V24.4545L82.8864 27.25V27.9318Z" fill="black"/>
</g>
<defs>
<filter id="filter0_dd_1_2" x="0" y="0" width="150" height="150" filterUnits="userSpaceOnUse" color-interpolation-filters="sRGB">
<feFlood flood-opacity="0" result="BackgroundImageFix"/>
<feColorMatrix in="SourceAlpha" type="matrix" values="0 0 0 0 0 0 0 0 0 0 0 0 0 0 0 0 0 0 127 0" result="hardAlpha"/>
<feOffset dy="1"/>
<feGaussianBlur stdDeviation="1.5"/>
<feColorMatrix type="matrix" values="0 0 0 0 0 0 0 0 0 0 0 0 0 0 0 0 0 0 0.3 0"/>
<feBlend mode="normal" in2="BackgroundImageFix" result="effect1_dropShadow_1_2"/>
<feColorMatrix in="SourceAlpha" type="matrix" values="0 0 0 0 0 0 0 0 0 0 0 0 0 0 0 0 0 0 127 0" result="hardAlpha"/>
<feMorphology radius="3" operator="dilate" in="SourceAlpha" result="effect2_dropShadow_1_2"/>
<feOffset dy="4"/>
<feGaussianBlur stdDeviation="4"/>
<feColorMatrix type="matrix" values="0 0 0 0 0 0 0 0 0 0 0 0 0 0 0 0 0 0 0.15 0"/>
<feBlend mode="normal" in2="effect1_dropShadow_1_2" result="effect2_dropShadow_1_2"/>
<feBlend mode="normal" in="SourceGraphic" in2="effect2_dropShadow_1_2" result="shape"/>
</filter>
<linearGradient id="paint0_linear_1_2" x1="139" y1="71" x2="11" y2="71" gradientUnits="userSpaceOnUse">
<stop offset="0.320312" stop-color="#051036"/>
<stop offset="1" stop-color="#1131A2"/>
</linearGradient>
</defs>
</svg>
